<?xml version="1.0" encoding="UTF-8"?>
<!DOCTYPE svg PUBLIC "-//W3C//DTD SVG 1.1//EN" "http://www.w3.org/Graphics/SVG/1.1/DTD/svg11.dtd">
<!-- Creator: CorelDRAW -->
<svg xmlns="http://www.w3.org/2000/svg" xml:space="preserve" width="1.70666in" height="1.70666in" version="1.1" style="shape-rendering:geometricPrecision; text-rendering:geometricPrecision; image-rendering:optimizeQuality; fill-rule:evenodd; clip-rule:evenodd"
viewBox="0 0 1707 1707"
 xmlns:xlink="http://www.w3.org/1999/xlink">
 <defs>
  <style type="text/css">
   <![CDATA[
    .fil0 {fill:black}
   ]]>
  </style>
 </defs>
 <g id="Layer_x0020_1">
  <metadata id="CorelCorpID_0Corel-Layer"/>
  <g id="_491736072">
   <g>
    <g>
     <g>
      <path class="fil0" d="M1090 924c-221,0 -400,-179 -400,-399 0,-221 179,-401 400,-401 220,0 398,179 398,399 0,221 -178,401 -398,401zm0 -752c-194,0 -351,158 -351,351 0,194 158,351 351,351 193,0 349,-158 349,-351 2,-193 -155,-351 -349,-351z"/>
     </g>
     <g>
      <path class="fil0" d="M1382 781c-7,0 -14,-3 -19,-9 -67,-84 -166,-132 -273,-132 -107,0 -208,48 -275,132 -8,11 -23,12 -35,4 -11,-9 -12,-24 -4,-35 77,-96 190,-150 312,-150 122,0 235,54 312,150 9,11 7,26 -4,35 -3,4 -8,5 -14,5z"/>
     </g>
     <g>
      <path class="fil0" d="M1090 548c-86,0 -156,-69 -156,-154 0,-86 70,-155 156,-155 84,0 154,69 154,155 0,85 -68,154 -154,154zm0 -261c-59,0 -107,48 -107,107 0,59 47,106 107,106 58,0 105,-47 105,-106 0,-58 -47,-107 -105,-107z"/>
     </g>
    </g>
    <g>
     <g>
      <path class="fil0" d="M308 1541c-10,0 -20,-5 -23,-15 -4,-13 2,-26 14,-32 171,-64 262,-47 361,-30 158,27 338,59 960,-314 44,-28 44,-72 24,-105 -19,-32 -59,-53 -104,-27 -43,27 -81,50 -120,75 -278,174 -445,278 -841,92 -12,-6 -18,-21 -11,-32 6,-13 21,-18 32,-11 144,68 255,95 354,93 3,0 4,-2 7,-2 27,0 44,-23 47,-44 1,-10 3,-42 -35,-53l-277 -83c-128,-37 -190,-6 -296,47 -26,14 -55,28 -88,43 -13,6 -27,0 -32,-12 -6,-13 0,-27 12,-32 32,-15 60,-29 88,-43 108,-54 185,-95 331,-50l277 83c56,17 75,65 70,107 -2,10 -4,18 -8,28 113,-25 216,-89 346,-172 39,-24 78,-49 121,-75 69,-42 139,-10 170,43 32,54 30,130 -41,172 -638,381 -827,348 -995,319 -91,-17 -177,-31 -335,27 -3,2 -6,3 -8,3z"/>
     </g>
     <g>
      <path class="fil0" d="M72 1583c-36,0 -65,-28 -65,-64l-7 -394c0,-36 27,-64 62,-65l197 -4 0 0c36,0 65,28 65,64l7 395c0,36 -28,65 -64,65l-195 3 0 0zm188 -477l-197 4c-8,0 -15,7 -15,15l7 395c0,9 7,16 15,16l197 -4c9,0 16,-7 16,-16l-7 -395c0,-8 -7,-15 -16,-15z"/>
     </g>
     <g>
      <path class="fil0" d="M162 1304c-18,0 -36,-7 -51,-21 -16,-14 -24,-33 -24,-54 -1,-19 7,-39 21,-54 14,-15 33,-22 54,-23 42,-2 76,31 78,74 0,43 -35,78 -77,78 0,0 0,0 -1,0zm4 -104c0,0 -1,0 -1,0 -7,0 -14,3 -20,8 -5,6 -8,13 -7,20 0,8 3,15 9,21 5,5 11,8 18,7 16,0 29,-13 29,-30 -2,-13 -14,-26 -28,-26z"/>
     </g>
    </g>
   </g>
  </g>
 </g>
</svg>
