<?xml version="1.0" encoding="utf-8"?>
<!-- Generator: Adobe Illustrator 27.0.0, SVG Export Plug-In . SVG Version: 6.00 Build 0)  -->
<svg version="1.1" id="Layer_1" xmlns="http://www.w3.org/2000/svg" xmlns:xlink="http://www.w3.org/1999/xlink" x="0px" y="0px"
	 viewBox="0 0 100 100" enable-background="new 0 0 100 100" xml:space="preserve">
<path d="M4.03,62.22c-0.07,0.26-0.03,0.53,0.1,0.76l11.7,20.26c0.13,0.23,0.35,0.4,0.61,0.47c0.25,0.07,0.53,0.03,0.76-0.1
	l10.18-5.88c3,2.45,6.33,4.38,9.93,5.74v11.75c0,0.55,0.45,1,1,1H61.7c0.55,0,1-0.45,1-1V83.46c3.6-1.36,6.93-3.29,9.93-5.74
	L82.8,83.6c0.23,0.13,0.5,0.17,0.76,0.1c0.26-0.07,0.47-0.24,0.61-0.47l11.7-20.26c0.13-0.23,0.17-0.5,0.1-0.76
	c-0.07-0.26-0.24-0.47-0.47-0.61l-10.18-5.88c0.31-1.92,0.47-3.84,0.47-5.73s-0.16-3.81-0.47-5.73l10.18-5.88
	c0.23-0.13,0.4-0.35,0.47-0.61c0.07-0.26,0.03-0.53-0.1-0.76l-11.7-20.26c-0.13-0.23-0.35-0.4-0.61-0.47
	c-0.25-0.07-0.53-0.03-0.76,0.1l-10.18,5.88c-3-2.45-6.33-4.38-9.92-5.74V4.79c0-0.55-0.45-1-1-1H38.3c-0.55,0-1,0.45-1,1v11.75
	c-3.6,1.36-6.93,3.29-9.92,5.74L17.2,16.4c-0.23-0.13-0.5-0.17-0.76-0.1c-0.26,0.07-0.47,0.24-0.61,0.47L4.13,37.02
	c-0.13,0.23-0.17,0.5-0.1,0.76c0.07,0.26,0.24,0.47,0.47,0.61l10.18,5.88c-0.31,1.92-0.47,3.84-0.47,5.73s0.16,3.81,0.47,5.73
	L4.5,61.61C4.27,61.74,4.1,61.96,4.03,62.22z M16.29,57.12c0.37-0.21,0.56-0.63,0.48-1.04C16.4,54.04,16.21,52,16.21,50
	s0.19-4.04,0.55-6.07c0.08-0.42-0.12-0.83-0.48-1.04l-9.92-5.73l10.7-18.53l9.92,5.73c0.37,0.21,0.83,0.17,1.15-0.1
	c3.13-2.66,6.67-4.71,10.51-6.08c0.4-0.14,0.66-0.52,0.66-0.94V5.79H60.7v11.44c0,0.42,0.27,0.8,0.66,0.94
	c3.84,1.37,7.38,3.42,10.51,6.08c0.32,0.28,0.78,0.32,1.15,0.1l9.92-5.73l10.7,18.53l-9.92,5.73c-0.37,0.21-0.56,0.63-0.48,1.04
	C83.6,45.96,83.79,48,83.79,50s-0.19,4.04-0.55,6.07c-0.08,0.42,0.12,0.83,0.48,1.04l9.92,5.73l-10.7,18.53l-9.92-5.73
	c-0.37-0.21-0.83-0.17-1.15,0.1c-3.13,2.66-6.67,4.71-10.51,6.08c-0.4,0.14-0.66,0.52-0.66,0.94v11.44H39.3V82.76
	c0-0.42-0.27-0.8-0.66-0.94c-3.84-1.37-7.38-3.42-10.51-6.08c-0.32-0.27-0.78-0.32-1.15-0.1l-9.92,5.73L6.37,62.84L16.29,57.12z"/>
<path d="M50,67c9.37,0,17-7.63,17-17s-7.63-17-17-17s-17,7.63-17,17S40.63,67,50,67z M50,35c8.27,0,15,6.73,15,15s-6.73,15-15,15
	s-15-6.73-15-15S41.73,35,50,35z"/>
<path d="M50,73.71c13.08,0,23.71-10.64,23.71-23.71S63.08,26.29,50,26.29S26.29,36.92,26.29,50S36.92,73.71,50,73.71z M50,28.29
	c11.97,0,21.71,9.74,21.71,21.71S61.97,71.71,50,71.71S28.29,61.97,28.29,50S38.03,28.29,50,28.29z"/>
</svg>
