<?xml version="1.0" encoding="UTF-8"?>
<!DOCTYPE svg PUBLIC "-//W3C//DTD SVG 1.1//EN" "http://www.w3.org/Graphics/SVG/1.1/DTD/svg11.dtd">
<!-- Creator: CorelDRAW -->
<svg xmlns="http://www.w3.org/2000/svg" xml:space="preserve" width="512px" height="512px" version="1.1" style="shape-rendering:geometricPrecision; text-rendering:geometricPrecision; image-rendering:optimizeQuality; fill-rule:evenodd; clip-rule:evenodd"
viewBox="0 0 512 512"
 xmlns:xlink="http://www.w3.org/1999/xlink">
 <defs>
  <style type="text/css">
   <![CDATA[
    .fil0 {fill:black}
   ]]>
  </style>
 </defs>
 <g id="Layer_x0020_1">
  <metadata id="CorelCorpID_0Corel-Layer"/>
  <g id="_514617960">
   <g>
    <g>
     <g>
      <path class="fil0" d="M93 512c-13,0 -26,-6 -33,-16 -6,-8 -8,-18 -6,-27 0,0 0,0 0,0l27 -88 0 -1 -17 -42 -17 -15c-3,-2 -4,-7 -1,-10 2,-3 7,-3 10,0l19 16c1,0 1,1 2,2l17 44c0,1 0,1 0,1l1 3c0,1 0,3 0,4l-27 90c-2,6 1,11 3,14 5,7 14,11 22,11 13,0 24,-12 24,-27l0 -153c0,-4 3,-7 7,-7 4,0 7,3 7,7l0 153c0,23 -17,41 -38,41z"/>
     </g>
     <g>
      <path class="fil0" d="M125 325l-75 0c-15,0 -28,-13 -28,-28l0 -2c0,-4 3,-7 7,-7l59 0c2,0 4,-2 4,-4 0,-1 -2,-3 -4,-3l-59 0c-4,0 -7,-3 -7,-7l0 -20c0,-4 3,-7 7,-7l59 0c2,0 4,-1 4,-3 0,-2 -2,-4 -4,-4l-59 0c-4,0 -7,-3 -7,-7l0 -19c0,-4 3,-7 7,-7l59 0c2,0 4,-2 4,-4 0,-2 -2,-3 -4,-3l-59 0c-4,0 -7,-3 -7,-7l0 -20c0,-4 3,-7 7,-7l59 0c2,0 4,-2 4,-3 0,-2 -2,-4 -4,-4l-59 0c-4,0 -7,-3 -7,-7l0 -20c0,-4 3,-7 7,-7l59 0c2,0 4,-1 4,-3 0,-2 -2,-4 -4,-4l-59 0c-4,0 -7,-3 -7,-7l0 -19c0,-4 3,-7 7,-7l59 0c2,0 4,-2 4,-4 0,-2 -2,-3 -4,-3l-59 0c-4,0 -7,-3 -7,-7l0 -20c0,-4 3,-7 7,-7l59 0c2,0 4,-2 4,-3 0,-2 -2,-4 -4,-4l-59 0c-4,0 -7,-3 -7,-7l0 -2c0,-15 13,-28 28,-28l75 0c15,0 28,13 28,28l0 269c0,15 -13,28 -28,28zm-88 -23c2,5 7,9 13,9l75 0c7,0 14,-7 14,-14l0 -269c0,-7 -7,-14 -14,-14l-75 0c-6,0 -11,4 -13,9l51 0c10,0 18,8 18,18 0,9 -8,17 -18,17l-52 0 0 6 52 0c10,0 18,7 18,17 0,10 -8,18 -18,18l-52 0 0 5 52 0c10,0 18,8 18,18 0,9 -8,17 -18,17l-52 0 0 6 52 0c10,0 18,8 18,18 0,9 -8,17 -18,17l-52 0 0 6 52 0c10,0 18,8 18,17 0,10 -8,18 -18,18l-52 0 0 5 52 0c10,0 18,8 18,18 0,9 -8,17 -18,17l-52 0 0 6 52 0c10,0 18,8 18,17 0,10 -8,18 -18,18l-51 0z"/>
     </g>
    </g>
    <g>
     <g>
      <path class="fil0" d="M263 494c-25,0 -44,-20 -44,-45 0,-24 20,-44 44,-44 25,0 45,20 45,44 0,25 -20,45 -45,45zm0 -75c-16,0 -30,13 -30,30 0,17 13,31 30,31 17,0 31,-14 31,-31 0,-16 -14,-30 -31,-30z"/>
     </g>
     <g>
      <path class="fil0" d="M427 512c-35,0 -63,-28 -63,-63 0,-19 9,-37 25,-49l-25 -42 -41 12 -19 31c14,13 22,30 22,48 0,35 -28,63 -63,63 -35,0 -63,-28 -63,-63 0,-34 28,-62 63,-62 5,0 9,0 12,1l27 -46 -86 -321c-1,-3 1,-7 4,-8 3,-2 6,-1 8,2l55 68c1,0 1,1 2,2l56 157 61 -169c1,-1 1,-2 2,-2l55 -68c2,-3 5,-4 8,-2 3,1 5,5 4,8l-87 321 34 57c3,0 6,0 9,0 35,0 63,28 63,62 0,35 -28,63 -63,63zm-60 -169c2,0 5,1 6,3l31 52c2,4 1,8 -2,10 -15,9 -24,24 -24,41 0,27 22,49 49,49 27,0 49,-22 49,-49 0,-27 -22,-48 -49,-48 -5,0 -8,0 -11,1 -3,1 -6,-1 -8,-3l-38 -64c-1,-2 -1,-4 -1,-6l80 -292 -34 42 -67 186c-1,3 -4,5 -7,5 0,0 0,0 0,0 -3,0 -5,-2 -6,-5l-63 -175 -34 -41 78 292c0,2 0,4 -1,5l-30 53c-1,3 -4,4 -7,4 -5,-1 -10,-2 -15,-2 -27,0 -49,21 -49,48 0,27 22,49 49,49 27,0 49,-22 49,-49 0,-15 -8,-30 -21,-41 -3,-2 -4,-6 -2,-9l23 -39c1,-1 2,-2 4,-3l49 -14c1,0 1,0 2,0z"/>
     </g>
     <g>
      <path class="fil0" d="M427 494c-25,0 -44,-20 -44,-45 0,-24 20,-44 44,-44 25,0 45,20 45,44 0,25 -20,45 -45,45zm0 -75c-16,0 -30,13 -30,30 0,17 13,31 30,31 17,0 31,-14 31,-31 0,-16 -14,-30 -31,-30z"/>
     </g>
     <g>
      <path class="fil0" d="M340 330c-14,0 -25,-11 -25,-25 0,-14 11,-25 25,-25 13,0 24,11 24,25 0,14 -11,25 -24,25zm0 -36c-6,0 -11,5 -11,11 0,6 5,11 11,11 5,0 10,-5 10,-11 0,-6 -5,-11 -10,-11z"/>
     </g>
    </g>
   </g>
  </g>
 </g>
</svg>
